<svg width="256" height="256" viewBox="0 0 256 256" fill="none" xmlns="http://www.w3.org/2000/svg">
<path d="M37.0458 163.648C37.0458 160.573 38.2148 157.499 40.5499 155.161L65.8792 129.832C68.1497 127.562 71.1649 126.314 74.3711 126.314C77.5773 126.314 80.5952 127.564 82.8629 129.832L97.9357 144.905V13.4166C97.9385 6.79339 103.328 1.40662 109.951 1.40662H145.762C152.385 1.40662 157.772 6.79339 157.772 13.4194V144.908L172.845 129.835C175.112 127.564 178.13 126.317 181.337 126.317C184.548 126.317 187.563 127.567 189.834 129.838L215.152 155.159C219.834 159.84 219.836 167.464 215.152 172.145L136.486 250.808C134.218 253.081 131.088 254.343 127.857 254.307C124.625 254.346 121.495 253.081 119.227 250.811L40.5555 172.142C38.2148 169.799 37.0458 166.725 37.0458 163.648ZM74.3739 145.183L55.9066 163.65L127.857 235.598L199.804 163.65L181.339 145.183L155.302 171.221C152.891 173.632 149.266 174.354 146.116 173.047C142.966 171.743 140.912 168.669 140.912 165.261V18.2666H114.799V165.258C114.799 168.669 112.747 171.743 109.594 173.044C106.444 174.351 102.817 173.629 100.406 171.218L74.3739 145.183Z" fill="black"/>
</svg>
