<svg width="42" height="28" viewBox="0 0 42 28" fill="none" xmlns="http://www.w3.org/2000/svg">
<path d="M23.0001 10.85V14.2333H26.0334C26.2667 14.2333 26.3834 14.4667 26.3834 14.7L25.9167 16.9167C25.9167 17.0333 25.6834 17.15 25.5667 17.15H23.0001V25.6667H19.5001V17.2667H17.5167C17.2834 17.2667 17.1667 17.15 17.1667 16.9167V14.7C17.1667 14.4667 17.2834 14.35 17.5167 14.35H19.5001V10.5C19.5001 8.51667 21.0167 7 23.0001 7H26.1501C26.3834 7 26.5001 7.11667 26.5001 7.35V10.15C26.5001 10.3833 26.3834 10.5 26.1501 10.5H23.3501C23.1167 10.5 23.0001 10.6167 23.0001 10.85Z" stroke="#BE0000" stroke-width="1.5" stroke-miterlimit="10" stroke-linecap="round"/>
<path d="M24.1667 25.6667H17.1667C11.3333 25.6667 9 23.3334 9 17.5V10.5C9 4.66671 11.3333 2.33337 17.1667 2.33337H24.1667C30 2.33337 32.3333 4.66671 32.3333 10.5V17.5C32.3333 23.3334 30 25.6667 24.1667 25.6667Z" stroke="#BE0000" stroke-width="1.5" stroke-linecap="round" stroke-linejoin="round"/>
</svg>
