<svg width="42" height="28" viewBox="0 0 42 28" fill="none" xmlns="http://www.w3.org/2000/svg">
<path d="M24.1667 25.6667H17.1667C11.3333 25.6667 9 23.3334 9 17.5V10.5C9 4.66671 11.3333 2.33337 17.1667 2.33337H24.1667C30 2.33337 32.3333 4.66671 32.3333 10.5V17.5C32.3333 23.3334 30 25.6667 24.1667 25.6667Z" stroke="#BE0000" stroke-width="1.5" stroke-linecap="round" stroke-linejoin="round"/>
<path d="M21.1667 18C21.7577 18 22.3429 17.8836 22.8888 17.6575C23.4348 17.4313 23.9309 17.0998 24.3487 16.682C24.7666 16.2641 25.0981 15.768 25.3242 15.2221C25.5504 14.6761 25.6667 14.0909 25.6667 13.5C25.6667 12.9091 25.5504 12.3239 25.3242 11.7779C25.0981 11.232 24.7666 10.7359 24.3487 10.318C23.9309 9.90016 23.4348 9.56869 22.8888 9.34254C22.3429 9.1164 21.7577 9 21.1667 9C19.9733 9 18.8287 9.47411 17.9848 10.318C17.1409 11.1619 16.6667 12.3065 16.6667 13.5C16.6667 14.6935 17.1409 15.8381 17.9848 16.682C18.8287 17.5259 19.9733 18 21.1667 18Z" stroke="#BE0000" stroke-width="1.5" stroke-linecap="round" stroke-linejoin="round"/>
<path d="M27.6667 7H27.6913" stroke="#BE0000" stroke-width="2" stroke-linecap="round" stroke-linejoin="round"/>
</svg>
